<svg xmlns="http://www.w3.org/2000/svg" viewBox="0 0 120 120" fill="none" role="img" aria-label="PIMART">
  <!-- 最新网站圆标：黑白线条叠卡 + 实心黑 P -->
  <circle cx="60" cy="60" r="54" stroke="#111827" stroke-width="5" fill="#FFFFFF"/>
  <circle cx="60" cy="60" r="49.5" stroke="#111827" stroke-width="1" fill="none" opacity="0.28"/>

  <rect x="38" y="28" width="40" height="54" rx="7" fill="none" stroke="#111827" stroke-width="2" transform="rotate(-22 58 55)"/>
  <rect x="40" y="30" width="40" height="54" rx="7" fill="none" stroke="#111827" stroke-width="2" transform="rotate(18 60 57)"/>
  <rect x="39" y="29" width="42" height="56" rx="7" fill="#FFFFFF" stroke="#111827" stroke-width="2.25" transform="rotate(-6 60 57)"/>

  <g transform="translate(47 41)">
    <path
      fill="#111827"
      fill-rule="evenodd"
      d="
        M3 1.5
        H16.2
        C23.4 1.5 28.2 6.1 28.2 12.4
        C28.2 18.8 23.2 23.2 15.8 23.2
        H10.2
        V36.5
        H3
        V1.5
        Z
        M10.2 7.4
        V17.3
        H15.4
        C18.9 17.3 21.1 15.2 21.1 12.4
        C21.1 9.6 18.9 7.4 15.4 7.4
        H10.2
        Z
        M-0.2 9.6 H11.2 V11.5 H-0.2 Z
        M-1.6 13.2 H11.2 V15.1 H-1.6 Z
        M-0.2 16.8 H11.2 V18.7 H-0.2 Z
      "
    />
  </g>
</svg>
