<svg xmlns="http://www.w3.org/2000/svg" viewBox="0 0 48 48" fill="none" role="img" aria-label="PIMARTCARD">
  <rect width="48" height="48" rx="12" fill="#FFFFFF"/>
  <rect x="8" y="14" width="22" height="28" rx="3.5" fill="#E5E7EB" transform="rotate(-7 19 28)"/>
  <rect x="12" y="8" width="22" height="28" rx="3.5" fill="#FFFFFF" stroke="#111827" stroke-width="1.5" transform="rotate(4 23 22)"/>
  <path d="M17.5 17.5 C17.5 15 19.8 13.5 22.5 13.5 C24.8 13.5 26.5 14.8 26.5 16.8 C26.5 18.6 25.2 19.8 23.2 20.3 L26.8 26.5 H23.8 L20.8 20.6 H19.5 V26.5 H17.5 V17.5 Z M19.5 18.8 H22.2 C23.5 18.8 24.3 18 24.3 16.8 C24.3 15.6 23.5 14.8 22.2 14.8 H19.5 V18.8 Z" fill="#111827" transform="rotate(4 23 22)"/>
</svg>
