<svg xmlns="http://www.w3.org/2000/svg" viewBox="0 0 120 120" fill="none" role="img" aria-label="PIMART">
  <circle cx="60" cy="60" r="56" fill="#0B1F3A"/>
  <rect x="34" y="38" width="46" height="58" rx="7" fill="none" stroke="#FFFFFF" stroke-width="2.2" transform="rotate(-16 57 67)"/>
  <rect x="38" y="34" width="46" height="58" rx="7" fill="#0B1F3A" stroke="#FFFFFF" stroke-width="2" transform="rotate(-6 61 63)"/>
  <rect x="40" y="30" width="48" height="60" rx="7" fill="#FFFFFF" stroke="#FFFFFF" stroke-width="1" transform="rotate(8 64 60)"/>
  <g transform="translate(46 56) rotate(8)">
    <path d="M0 10 V-8 H7.2 C10.6 -8 12.6 -5.8 12.6 -2.6 C12.6 0.8 10.4 2.8 7 2.8 H3.4 V10 H0 Z M3.4 -4.8 V0 H6.8 C8.4 0 9.4 -1 9.4 -2.5 C9.4 -4 8.4 -4.8 6.8 -4.8 H3.4 Z" fill="#0B1F3A"/>
    <path d="M4.2 -2.9 H9.8 M4.2 -1.5 H9.2 M4.2 -0.1 H8.4" stroke="#0B1F3A" stroke-width="0.85" stroke-linecap="round"/>
    <text x="14.5" y="6.5" font-family="Inter, ui-sans-serif, system-ui, sans-serif" font-size="11.5" font-weight="800" fill="#0B1F3A" letter-spacing="0.04em">IMART</text>
  </g>
</svg>
